<svg xmlns="http://www.w3.org/2000/svg" xmlns:xlink="http://www.w3.org/1999/xlink" width="2000" zoomAndPan="magnify" viewBox="0 0 1500 1499.999933" height="2000" preserveAspectRatio="xMidYMid meet" version="1.0"><defs><g/><clipPath id="5f820ca213"><rect x="0" width="870" y="0" height="357"/></clipPath><clipPath id="f384b5a1af"><rect x="0" width="461" y="0" height="129"/></clipPath><clipPath id="deea0dce8a"><path d="M 1056 513.113281 L 1366 513.113281 L 1366 987 L 1056 987 Z M 1056 513.113281 " clip-rule="nonzero"/></clipPath><clipPath id="931505aef4"><path d="M 0 0.113281 L 171 0.113281 L 171 299 L 0 299 Z M 0 0.113281 " clip-rule="nonzero"/></clipPath><clipPath id="8a6ead160b"><path d="M 121 209 L 309.121094 209 L 309.121094 329 L 121 329 Z M 121 209 " clip-rule="nonzero"/></clipPath><clipPath id="6033ae2838"><path d="M 87 376 L 141 376 L 141 473.640625 L 87 473.640625 Z M 87 376 " clip-rule="nonzero"/></clipPath><clipPath id="0271128f22"><rect x="0" width="310" y="0" height="474"/></clipPath></defs><g transform="matrix(1, 0, 0, 1, 155, 518)"><g clip-path="url(#5f820ca213)"><g fill="#000000" fill-opacity="1"><g transform="translate(5.418849, 281.315378)"><g><path d="M 14.0625 -191.125 C 14.0625 -198.382812 16.582031 -204.488281 21.625 -209.4375 C 26.675781 -214.394531 32.648438 -216.875 39.546875 -216.875 C 46.804688 -216.875 52.957031 -214.394531 58 -209.4375 C 63.039062 -204.488281 65.5625 -198.382812 65.5625 -191.125 C 65.5625 -184.050781 63.039062 -178.035156 58 -173.078125 C 52.957031 -168.117188 46.804688 -165.640625 39.546875 -165.640625 C 32.648438 -165.640625 26.675781 -168.117188 21.625 -173.078125 C 16.582031 -178.035156 14.0625 -184.050781 14.0625 -191.125 Z M 19.109375 0 L 60.78125 0 L 60.78125 -141.75 L 19.109375 -141.75 Z M 19.109375 0 "/></g></g></g><g fill="#000000" fill-opacity="1"><g transform="translate(60.888213, 281.315378)"><g><path d="M 110.6875 -78.578125 C 110.6875 -86.535156 108.695312 -93.125 104.71875 -98.34375 C 100.738281 -103.570312 94.5 -106.1875 86 -106.1875 C 77.332031 -106.1875 70.914062 -103.394531 66.75 -97.8125 C 62.59375 -92.238281 60.515625 -85.828125 60.515625 -78.578125 L 60.515625 0 L 19.109375 0 L 19.109375 -141.75 L 60.265625 -141.75 L 60.265625 -123.171875 L 60.515625 -123.171875 C 63.171875 -127.953125 66.488281 -131.753906 70.46875 -134.578125 C 74.457031 -137.410156 78.484375 -139.535156 82.546875 -140.953125 C 86.617188 -142.367188 90.289062 -143.296875 93.5625 -143.734375 C 96.84375 -144.179688 99.191406 -144.40625 100.609375 -144.40625 C 112.640625 -144.40625 122.414062 -141.75 129.9375 -136.4375 C 137.457031 -131.132812 142.988281 -124.191406 146.53125 -115.609375 C 150.070312 -107.023438 151.84375 -97.863281 151.84375 -88.125 L 151.84375 0 L 110.6875 0 Z M 110.6875 -78.578125 "/></g></g></g><g fill="#000000" fill-opacity="1"><g transform="translate(206.070579, 281.315378)"><g><path d="M 3.71875 -141.75 L 47.515625 -141.75 L 82.5625 -47.25 L 117.59375 -141.75 L 161.390625 -141.75 L 103.265625 0 L 61.046875 0 Z M 3.71875 -141.75 "/></g></g></g><g fill="#000000" fill-opacity="1"><g transform="translate(346.475363, 281.315378)"><g><path d="M 52.5625 -59.46875 C 53.976562 -50.613281 58.003906 -43.753906 64.640625 -38.890625 C 71.273438 -34.023438 78.925781 -31.59375 87.59375 -31.59375 C 93.613281 -31.59375 99.585938 -33.09375 105.515625 -36.09375 C 111.441406 -39.101562 116 -43.265625 119.1875 -48.578125 L 149.1875 -28.9375 C 137.332031 -7.519531 116.976562 3.1875 88.125 3.1875 C 73.789062 3.1875 60.738281 0.046875 48.96875 -6.234375 C 37.207031 -12.515625 27.832031 -21.226562 20.84375 -32.375 C 13.851562 -43.53125 10.359375 -56.453125 10.359375 -71.140625 C 10.359375 -81.398438 12.347656 -91 16.328125 -99.9375 C 20.304688 -108.875 25.742188 -116.75 32.640625 -123.5625 C 39.546875 -130.375 47.507812 -135.679688 56.53125 -139.484375 C 65.5625 -143.296875 75.207031 -145.203125 85.46875 -145.203125 C 99.632812 -145.203125 111.976562 -142.191406 122.5 -136.171875 C 133.03125 -130.160156 141.257812 -121.84375 147.1875 -111.21875 C 153.125 -100.601562 156.09375 -88.304688 156.09375 -74.328125 C 156.09375 -71.847656 156.09375 -69.367188 156.09375 -66.890625 C 156.09375 -64.410156 155.914062 -61.9375 155.5625 -59.46875 Z M 114.671875 -86.796875 C 114.492188 -90.335938 113.300781 -94.007812 111.09375 -97.8125 C 108.882812 -101.625 105.609375 -104.851562 101.265625 -107.5 C 96.929688 -110.15625 91.316406 -111.484375 84.421875 -111.484375 C 78.222656 -111.484375 72.910156 -110.066406 68.484375 -107.234375 C 64.054688 -104.410156 60.601562 -101.09375 58.125 -97.28125 C 55.65625 -93.476562 54.15625 -89.984375 53.625 -86.796875 Z M 114.671875 -86.796875 "/></g></g></g><g fill="#000000" fill-opacity="1"><g transform="translate(488.472722, 281.315378)"><g><path d="M 125.828125 -42.734375 C 125.828125 -29.460938 120.867188 -18.488281 110.953125 -9.8125 C 101.046875 -1.144531 87.15625 3.1875 69.28125 3.1875 C 52.644531 3.1875 39.457031 0.179688 29.71875 -5.828125 C 19.988281 -11.847656 12.5625 -19.726562 7.4375 -29.46875 L 37.953125 -47.515625 C 40.429688 -42.554688 44.414062 -38.441406 49.90625 -35.171875 C 55.394531 -31.898438 62.03125 -30.265625 69.8125 -30.265625 C 75.125 -30.265625 79.328125 -31.320312 82.421875 -33.4375 C 85.515625 -35.5625 87.0625 -37.953125 87.0625 -40.609375 C 87.0625 -43.085938 85.78125 -45.476562 83.21875 -47.78125 C 80.65625 -50.082031 74.414062 -52.296875 64.5 -54.421875 C 55.832031 -56.367188 47.648438 -59.15625 39.953125 -62.78125 C 32.253906 -66.40625 26.015625 -71.222656 21.234375 -77.234375 C 16.453125 -83.253906 14.0625 -90.957031 14.0625 -100.34375 C 14.0625 -109.363281 16.628906 -117.234375 21.765625 -123.953125 C 26.898438 -130.679688 33.582031 -135.90625 41.8125 -139.625 C 50.039062 -143.34375 58.929688 -145.203125 68.484375 -145.203125 C 82.109375 -145.203125 93.519531 -142.503906 102.71875 -137.109375 C 111.925781 -131.710938 118.742188 -124.851562 123.171875 -116.53125 L 93.171875 -98.75 C 90.867188 -102.820312 87.640625 -106.09375 83.484375 -108.5625 C 79.328125 -111.039062 73.972656 -112.28125 67.421875 -112.28125 C 62.992188 -112.28125 59.410156 -111.265625 56.671875 -109.234375 C 53.929688 -107.203125 52.5625 -104.769531 52.5625 -101.9375 C 52.5625 -99.101562 53.882812 -96.578125 56.53125 -94.359375 C 59.1875 -92.148438 64.054688 -90.335938 71.140625 -88.921875 C 88.128906 -85.390625 101.488281 -80.035156 111.21875 -72.859375 C 120.957031 -65.691406 125.828125 -55.648438 125.828125 -42.734375 Z M 125.828125 -42.734375 "/></g></g></g><g fill="#000000" fill-opacity="1"><g transform="translate(599.946397, 281.315378)"><g><path d="M 106.71875 -0.796875 C 103.175781 0.265625 99.851562 0.972656 96.75 1.328125 C 93.65625 1.679688 90.515625 1.859375 87.328125 1.859375 C 68.578125 1.859375 54.507812 -3.003906 45.125 -12.734375 C 35.75 -22.472656 31.0625 -35.394531 31.0625 -51.5 L 31.0625 -105.921875 L 5.578125 -105.921875 L 5.578125 -141.75 L 31.59375 -141.75 L 31.59375 -186.078125 L 72.46875 -186.078125 L 72.46875 -141.75 L 107.515625 -141.75 L 107.515625 -105.921875 L 72.46875 -105.921875 L 72.46875 -56.546875 C 72.46875 -48.222656 74.632812 -42.378906 78.96875 -39.015625 C 83.300781 -35.660156 89.363281 -33.984375 97.15625 -33.984375 C 98.21875 -33.984375 99.632812 -34.070312 101.40625 -34.25 C 103.175781 -34.425781 104.945312 -34.691406 106.71875 -35.046875 Z M 106.71875 -0.796875 "/></g></g></g><g fill="#000000" fill-opacity="1"><g transform="translate(694.963799, 281.315378)"><g><path d="M 10.359375 -70.609375 C 10.359375 -81.222656 12.347656 -91.039062 16.328125 -100.0625 C 20.304688 -109.09375 25.878906 -116.96875 33.046875 -123.6875 C 40.210938 -130.414062 48.484375 -135.640625 57.859375 -139.359375 C 67.242188 -143.078125 77.332031 -144.9375 88.125 -144.9375 C 102.457031 -144.9375 115.421875 -141.75 127.015625 -135.375 C 138.609375 -129.007812 147.851562 -120.296875 154.75 -109.234375 C 161.65625 -98.171875 165.109375 -85.5625 165.109375 -71.40625 C 165.109375 -60.789062 163.117188 -50.925781 159.140625 -41.8125 C 155.160156 -32.695312 149.585938 -24.773438 142.421875 -18.046875 C 135.253906 -11.328125 126.976562 -6.109375 117.59375 -2.390625 C 108.21875 1.328125 98.21875 3.1875 87.59375 3.1875 C 73.257812 3.1875 60.253906 0.00390625 48.578125 -6.359375 C 36.898438 -12.734375 27.609375 -21.492188 20.703125 -32.640625 C 13.804688 -43.796875 10.359375 -56.453125 10.359375 -70.609375 Z M 52.828125 -71.140625 C 52.828125 -64.054688 54.414062 -57.769531 57.59375 -52.28125 C 60.78125 -46.800781 65.03125 -42.515625 70.34375 -39.421875 C 75.65625 -36.328125 81.492188 -34.78125 87.859375 -34.78125 C 97.597656 -34.78125 105.828125 -38.140625 112.546875 -44.859375 C 119.273438 -51.585938 122.640625 -60.347656 122.640625 -71.140625 C 122.640625 -78.222656 121.046875 -84.460938 117.859375 -89.859375 C 114.671875 -95.253906 110.46875 -99.5 105.25 -102.59375 C 100.03125 -105.695312 94.144531 -107.25 87.59375 -107.25 C 77.863281 -107.25 69.632812 -103.882812 62.90625 -97.15625 C 56.1875 -90.425781 52.828125 -81.753906 52.828125 -71.140625 Z M 52.828125 -71.140625 "/></g></g></g></g></g><g transform="matrix(1, 0, 0, 1, 554, 824)"><g clip-path="url(#f384b5a1af)"><g fill="#000000" fill-opacity="1"><g transform="translate(96.091873, 48.83684)"><g><path d="M 12.125 -22.1875 L 27.3125 -22.1875 L 27.3125 -14.8125 L 12.125 -14.8125 L 12.125 0 L 4.359375 0 L 4.359375 -37.515625 L 29.09375 -37.515625 L 29.09375 -30.140625 L 12.125 -30.140625 Z M 12.125 -22.1875 "/></g></g></g><g fill="#000000" fill-opacity="1"><g transform="translate(135.147534, 48.83684)"><g><path d="M 12.125 -37.515625 L 12.125 0 L 4.359375 0 L 4.359375 -37.515625 Z M 12.125 -37.515625 "/></g></g></g><g fill="#000000" fill-opacity="1"><g transform="translate(159.635158, 48.83684)"><g><path d="M 12.03125 -25.875 L 12.03125 0 L 4.359375 0 L 4.359375 -37.515625 L 13.21875 -37.515625 L 29.515625 -13.03125 L 29.515625 -37.515625 L 37.1875 -37.515625 L 37.1875 0 L 29.28125 0 Z M 12.03125 -25.875 "/></g></g></g><g fill="#000000" fill-opacity="1"><g transform="translate(209.185566, 48.83684)"><g><path d="M 7.765625 0 L -0.046875 0 L 14.28125 -37.515625 L 23.625 -37.515625 L 38 0 L 30 0 L 27.171875 -7.578125 L 10.546875 -7.578125 Z M 18.875 -30 L 13.21875 -14.765625 L 24.53125 -14.765625 Z M 18.875 -30 "/></g></g></g><g fill="#000000" fill-opacity="1"><g transform="translate(255.093981, 48.83684)"><g><path d="M 12.03125 -25.875 L 12.03125 0 L 4.359375 0 L 4.359375 -37.515625 L 13.21875 -37.515625 L 29.515625 -13.03125 L 29.515625 -37.515625 L 37.1875 -37.515625 L 37.1875 0 L 29.28125 0 Z M 12.03125 -25.875 "/></g></g></g><g fill="#000000" fill-opacity="1"><g transform="translate(304.64439, 48.83684)"><g><path d="M 2.0625 -18.734375 C 2.0625 -21.453125 2.5625 -23.984375 3.5625 -26.328125 C 4.570312 -28.679688 5.972656 -30.734375 7.765625 -32.484375 C 9.554688 -34.242188 11.625 -35.617188 13.96875 -36.609375 C 16.3125 -37.597656 18.828125 -38.09375 21.515625 -38.09375 C 23.972656 -38.09375 26.34375 -37.660156 28.625 -36.796875 C 30.914062 -35.941406 32.929688 -34.691406 34.671875 -33.046875 C 36.410156 -31.398438 37.695312 -29.394531 38.53125 -27.03125 L 31.4375 -23.765625 C 30.632812 -25.847656 29.363281 -27.492188 27.625 -28.703125 C 25.882812 -29.921875 23.832031 -30.53125 21.46875 -30.53125 C 19.289062 -30.53125 17.347656 -30 15.640625 -28.9375 C 13.929688 -27.882812 12.582031 -26.472656 11.59375 -24.703125 C 10.601562 -22.929688 10.109375 -20.972656 10.109375 -18.828125 C 10.109375 -16.660156 10.59375 -14.679688 11.5625 -12.890625 C 12.539062 -11.097656 13.882812 -9.664062 15.59375 -8.59375 C 17.300781 -7.53125 19.257812 -7 21.46875 -7 C 23.832031 -7 25.898438 -7.644531 27.671875 -8.9375 C 29.441406 -10.226562 30.726562 -11.894531 31.53125 -13.9375 L 38.671875 -10.640625 C 37.804688 -8.273438 36.476562 -6.257812 34.6875 -4.59375 C 32.90625 -2.9375 30.851562 -1.664062 28.53125 -0.78125 C 26.21875 0.09375 23.832031 0.53125 21.375 0.53125 C 18.65625 0.53125 16.117188 0.046875 13.765625 -0.921875 C 11.421875 -1.898438 9.367188 -3.257812 7.609375 -5 C 5.859375 -6.75 4.492188 -8.796875 3.515625 -11.140625 C 2.546875 -13.492188 2.0625 -16.023438 2.0625 -18.734375 Z M 2.0625 -18.734375 "/></g></g></g><g fill="#000000" fill-opacity="1"><g transform="translate(352.469621, 48.83684)"><g><path d="M 12.125 -37.515625 L 12.125 0 L 4.359375 0 L 4.359375 -37.515625 Z M 12.125 -37.515625 "/></g></g></g><g fill="#000000" fill-opacity="1"><g transform="translate(376.957245, 48.83684)"><g><path d="M 7.765625 0 L -0.046875 0 L 14.28125 -37.515625 L 23.625 -37.515625 L 38 0 L 30 0 L 27.171875 -7.578125 L 10.546875 -7.578125 Z M 18.875 -30 L 13.21875 -14.765625 L 24.53125 -14.765625 Z M 18.875 -30 "/></g></g></g><g fill="#000000" fill-opacity="1"><g transform="translate(422.86566, 48.83684)"><g><path d="M 4.359375 -37.515625 L 12.078125 -37.515625 L 12.078125 -7.375 L 28.125 -7.375 L 28.125 0 L 4.359375 0 Z M 4.359375 -37.515625 "/></g></g></g><g fill="#000000" fill-opacity="1"><g transform="translate(2.059709, 112.73129)"><g><path d="M 12.265625 0 L 12.265625 -30 L 1 -30 L 1 -37.515625 L 31.25 -37.515625 L 31.25 -30 L 19.984375 -30 L 19.984375 0 Z M 12.265625 0 "/></g></g></g><g fill="#000000" fill-opacity="1"><g transform="translate(42.265447, 112.73129)"><g><path d="M 4.359375 -37.515625 L 28.9375 -37.515625 L 28.9375 -30.234375 L 12.03125 -30.234375 L 12.03125 -22.625 L 27.171875 -22.625 L 27.171875 -15.328125 L 12.03125 -15.328125 L 12.03125 -7.234375 L 29.046875 -7.234375 L 29.046875 0 L 4.359375 0 Z M 4.359375 -37.515625 "/></g></g></g><g fill="#000000" fill-opacity="1"><g transform="translate(81.991996, 112.73129)"><g><path d="M 2.0625 -18.734375 C 2.0625 -21.453125 2.5625 -23.984375 3.5625 -26.328125 C 4.570312 -28.679688 5.972656 -30.734375 7.765625 -32.484375 C 9.554688 -34.242188 11.625 -35.617188 13.96875 -36.609375 C 16.3125 -37.597656 18.828125 -38.09375 21.515625 -38.09375 C 23.972656 -38.09375 26.34375 -37.660156 28.625 -36.796875 C 30.914062 -35.941406 32.929688 -34.691406 34.671875 -33.046875 C 36.410156 -31.398438 37.695312 -29.394531 38.53125 -27.03125 L 31.4375 -23.765625 C 30.632812 -25.847656 29.363281 -27.492188 27.625 -28.703125 C 25.882812 -29.921875 23.832031 -30.53125 21.46875 -30.53125 C 19.289062 -30.53125 17.347656 -30 15.640625 -28.9375 C 13.929688 -27.882812 12.582031 -26.472656 11.59375 -24.703125 C 10.601562 -22.929688 10.109375 -20.972656 10.109375 -18.828125 C 10.109375 -16.660156 10.59375 -14.679688 11.5625 -12.890625 C 12.539062 -11.097656 13.882812 -9.664062 15.59375 -8.59375 C 17.300781 -7.53125 19.257812 -7 21.46875 -7 C 23.832031 -7 25.898438 -7.644531 27.671875 -8.9375 C 29.441406 -10.226562 30.726562 -11.894531 31.53125 -13.9375 L 38.671875 -10.640625 C 37.804688 -8.273438 36.476562 -6.257812 34.6875 -4.59375 C 32.90625 -2.9375 30.851562 -1.664062 28.53125 -0.78125 C 26.21875 0.09375 23.832031 0.53125 21.375 0.53125 C 18.65625 0.53125 16.117188 0.046875 13.765625 -0.921875 C 11.421875 -1.898438 9.367188 -3.257812 7.609375 -5 C 5.859375 -6.75 4.492188 -8.796875 3.515625 -11.140625 C 2.546875 -13.492188 2.0625 -16.023438 2.0625 -18.734375 Z M 2.0625 -18.734375 "/></g></g></g><g fill="#000000" fill-opacity="1"><g transform="translate(129.817228, 112.73129)"><g><path d="M 12.125 -15.1875 L 12.125 0 L 4.359375 0 L 4.359375 -37.515625 L 12.125 -37.515625 L 12.125 -22.71875 L 27.84375 -22.71875 L 27.84375 -37.515625 L 35.609375 -37.515625 L 35.609375 0 L 27.84375 0 L 27.84375 -15.1875 Z M 12.125 -15.1875 "/></g></g></g><g fill="#000000" fill-opacity="1"><g transform="translate(177.738309, 112.73129)"><g><path d="M 12.03125 -25.875 L 12.03125 0 L 4.359375 0 L 4.359375 -37.515625 L 13.21875 -37.515625 L 29.515625 -13.03125 L 29.515625 -37.515625 L 37.1875 -37.515625 L 37.1875 0 L 29.28125 0 Z M 12.03125 -25.875 "/></g></g></g><g fill="#000000" fill-opacity="1"><g transform="translate(227.288717, 112.73129)"><g><path d="M 2.0625 -18.734375 C 2.0625 -21.421875 2.570312 -23.9375 3.59375 -26.28125 C 4.613281 -28.632812 6.019531 -30.695312 7.8125 -32.46875 C 9.601562 -34.238281 11.6875 -35.617188 14.0625 -36.609375 C 16.445312 -37.597656 18.976562 -38.09375 21.65625 -38.09375 C 24.34375 -38.09375 26.859375 -37.601562 29.203125 -36.625 C 31.554688 -35.65625 33.617188 -34.300781 35.390625 -32.5625 C 37.160156 -30.820312 38.539062 -28.785156 39.53125 -26.453125 C 40.519531 -24.117188 41.015625 -21.609375 41.015625 -18.921875 C 41.015625 -16.210938 40.507812 -13.675781 39.5 -11.3125 C 38.5 -8.945312 37.097656 -6.867188 35.296875 -5.078125 C 33.492188 -3.285156 31.410156 -1.894531 29.046875 -0.90625 C 26.679688 0.0820312 24.15625 0.578125 21.46875 0.578125 C 18.78125 0.578125 16.265625 0.0820312 13.921875 -0.90625 C 11.578125 -1.894531 9.515625 -3.269531 7.734375 -5.03125 C 5.960938 -6.789062 4.570312 -8.835938 3.5625 -11.171875 C 2.5625 -13.503906 2.0625 -16.023438 2.0625 -18.734375 Z M 10.015625 -18.78125 C 10.015625 -16.644531 10.523438 -14.671875 11.546875 -12.859375 C 12.566406 -11.054688 13.957031 -9.617188 15.71875 -8.546875 C 17.476562 -7.484375 19.425781 -6.953125 21.5625 -6.953125 C 23.738281 -6.953125 25.695312 -7.484375 27.4375 -8.546875 C 29.175781 -9.617188 30.554688 -11.054688 31.578125 -12.859375 C 32.597656 -14.671875 33.109375 -16.644531 33.109375 -18.78125 C 33.109375 -20.957031 32.597656 -22.929688 31.578125 -24.703125 C 30.554688 -26.472656 29.175781 -27.894531 27.4375 -28.96875 C 25.695312 -30.039062 23.738281 -30.578125 21.5625 -30.578125 C 19.425781 -30.578125 17.476562 -30.039062 15.71875 -28.96875 C 13.957031 -27.894531 12.566406 -26.472656 11.546875 -24.703125 C 10.523438 -22.929688 10.015625 -20.957031 10.015625 -18.78125 Z M 10.015625 -18.78125 "/></g></g></g><g fill="#000000" fill-opacity="1"><g transform="translate(278.324648, 112.73129)"><g><path d="M 4.359375 -37.515625 L 12.078125 -37.515625 L 12.078125 -7.375 L 28.125 -7.375 L 28.125 0 L 4.359375 0 Z M 4.359375 -37.515625 "/></g></g></g><g fill="#000000" fill-opacity="1"><g transform="translate(315.223837, 112.73129)"><g><path d="M 2.0625 -18.734375 C 2.0625 -21.421875 2.570312 -23.9375 3.59375 -26.28125 C 4.613281 -28.632812 6.019531 -30.695312 7.8125 -32.46875 C 9.601562 -34.238281 11.6875 -35.617188 14.0625 -36.609375 C 16.445312 -37.597656 18.976562 -38.09375 21.65625 -38.09375 C 24.34375 -38.09375 26.859375 -37.601562 29.203125 -36.625 C 31.554688 -35.65625 33.617188 -34.300781 35.390625 -32.5625 C 37.160156 -30.820312 38.539062 -28.785156 39.53125 -26.453125 C 40.519531 -24.117188 41.015625 -21.609375 41.015625 -18.921875 C 41.015625 -16.210938 40.507812 -13.675781 39.5 -11.3125 C 38.5 -8.945312 37.097656 -6.867188 35.296875 -5.078125 C 33.492188 -3.285156 31.410156 -1.894531 29.046875 -0.90625 C 26.679688 0.0820312 24.15625 0.578125 21.46875 0.578125 C 18.78125 0.578125 16.265625 0.0820312 13.921875 -0.90625 C 11.578125 -1.894531 9.515625 -3.269531 7.734375 -5.03125 C 5.960938 -6.789062 4.570312 -8.835938 3.5625 -11.171875 C 2.5625 -13.503906 2.0625 -16.023438 2.0625 -18.734375 Z M 10.015625 -18.78125 C 10.015625 -16.644531 10.523438 -14.671875 11.546875 -12.859375 C 12.566406 -11.054688 13.957031 -9.617188 15.71875 -8.546875 C 17.476562 -7.484375 19.425781 -6.953125 21.5625 -6.953125 C 23.738281 -6.953125 25.695312 -7.484375 27.4375 -8.546875 C 29.175781 -9.617188 30.554688 -11.054688 31.578125 -12.859375 C 32.597656 -14.671875 33.109375 -16.644531 33.109375 -18.78125 C 33.109375 -20.957031 32.597656 -22.929688 31.578125 -24.703125 C 30.554688 -26.472656 29.175781 -27.894531 27.4375 -28.96875 C 25.695312 -30.039062 23.738281 -30.578125 21.5625 -30.578125 C 19.425781 -30.578125 17.476562 -30.039062 15.71875 -28.96875 C 13.957031 -27.894531 12.566406 -26.472656 11.546875 -24.703125 C 10.523438 -22.929688 10.015625 -20.957031 10.015625 -18.78125 Z M 10.015625 -18.78125 "/></g></g></g><g fill="#000000" fill-opacity="1"><g transform="translate(366.259767, 112.73129)"><g><path d="M 9.96875 -18.78125 C 9.96875 -16.613281 10.453125 -14.617188 11.421875 -12.796875 C 12.398438 -10.972656 13.757812 -9.519531 15.5 -8.4375 C 17.238281 -7.351562 19.242188 -6.8125 21.515625 -6.8125 C 24.066406 -6.8125 26.207031 -7.398438 27.9375 -8.578125 C 29.664062 -9.753906 30.753906 -11.269531 31.203125 -13.125 L 19.796875 -13.125 L 19.796875 -20.171875 L 39.296875 -20.171875 L 39.296875 -17.25 C 39.296875 -14.34375 38.804688 -11.769531 37.828125 -9.53125 C 36.859375 -7.300781 35.535156 -5.441406 33.859375 -3.953125 C 32.179688 -2.460938 30.28125 -1.332031 28.15625 -0.5625 C 26.03125 0.195312 23.816406 0.578125 21.515625 0.578125 C 18.609375 0.578125 15.960938 0.078125 13.578125 -0.921875 C 11.203125 -1.929688 9.148438 -3.316406 7.421875 -5.078125 C 5.703125 -6.835938 4.378906 -8.882812 3.453125 -11.21875 C 2.523438 -13.550781 2.0625 -16.054688 2.0625 -18.734375 C 2.0625 -21.484375 2.570312 -24.023438 3.59375 -26.359375 C 4.613281 -28.691406 6.023438 -30.742188 7.828125 -32.515625 C 9.640625 -34.285156 11.71875 -35.65625 14.0625 -36.625 C 16.414062 -37.601562 18.929688 -38.09375 21.609375 -38.09375 C 24.003906 -38.09375 26.148438 -37.765625 28.046875 -37.109375 C 29.953125 -36.460938 31.597656 -35.609375 32.984375 -34.546875 C 34.378906 -33.492188 35.53125 -32.351562 36.4375 -31.125 C 37.351562 -29.894531 38.019531 -28.6875 38.4375 -27.5 L 31.578125 -24.15625 C 31.222656 -25.113281 30.640625 -26.101562 29.828125 -27.125 C 29.015625 -28.144531 27.925781 -29.003906 26.5625 -29.703125 C 25.207031 -30.410156 23.523438 -30.765625 21.515625 -30.765625 C 19.410156 -30.765625 17.484375 -30.238281 15.734375 -29.1875 C 13.992188 -28.132812 12.597656 -26.703125 11.546875 -24.890625 C 10.492188 -23.085938 9.96875 -21.050781 9.96875 -18.78125 Z M 9.96875 -18.78125 "/></g></g></g><g fill="#000000" fill-opacity="1"><g transform="translate(415.283032, 112.73129)"><g><path d="M 14.421875 0 L 14.421875 -14.859375 L 0.671875 -37.515625 L 9.625 -37.515625 L 18.3125 -22.515625 L 27.078125 -37.515625 L 35.9375 -37.515625 L 22.1875 -15.1875 L 22.1875 0 Z M 14.421875 0 "/></g></g></g></g></g><g clip-path="url(#deea0dce8a)"><g transform="matrix(1, 0, 0, 1, 1056, 513)"><g clip-path="url(#0271128f22)"><g clip-path="url(#931505aef4)"><path fill="#d01e26" d="M 13.914062 0.113281 C 4 0.113281 -1.925781 7.917969 0.730469 17.464844 L 77.1875 291.074219 C 79.855469 300.628906 84.375 300.679688 87.222656 291.191406 L 169.785156 17.363281 C 172.648438 7.886719 166.882812 0.113281 156.976562 0.113281 L 105.429688 0.113281 C 95.515625 0.113281 79.304688 0.113281 69.390625 0.113281 Z M 13.914062 0.113281 " fill-opacity="1" fill-rule="nonzero"/></g><path fill="#d01e26" d="M 190.789062 75.367188 C 184.117188 71.160156 176.808594 73.886719 174.53125 81.453125 L 109.429688 298.265625 C 107.160156 305.832031 110.191406 307.789062 116.160156 302.609375 L 288.402344 153.398438 C 294.375 148.230469 293.789062 140.539062 287.128906 136.335938 L 252.410156 114.367188 C 245.738281 110.144531 234.820312 103.230469 228.148438 99.007812 Z M 190.789062 75.367188 " fill-opacity="1" fill-rule="nonzero"/><g clip-path="url(#8a6ead160b)"><path fill="#d01e26" d="M 272.140625 214.386719 C 269.644531 208.828125 263.789062 207.476562 259.085938 211.375 L 124.769531 323.085938 C 120.074219 326.972656 121.191406 329.527344 127.234375 328.746094 L 301.667969 306.199219 C 307.710938 305.421875 310.617188 300.242188 308.136719 294.683594 L 295.164062 265.746094 C 292.667969 260.199219 288.589844 251.089844 286.101562 245.53125 Z M 272.140625 214.386719 " fill-opacity="1" fill-rule="nonzero"/></g><path fill="#d01e26" d="M 269.25 339.0625 C 269.972656 334.332031 266.671875 330.941406 261.929688 331.515625 L 125.675781 347.882812 C 120.933594 348.453125 120.5625 350.609375 124.898438 352.675781 L 249.550781 412.222656 C 253.875 414.289062 257.984375 412.09375 258.734375 407.378906 L 262.515625 382.761719 C 263.25 378.042969 264.4375 370.296875 265.171875 365.558594 Z M 269.25 339.0625 " fill-opacity="1" fill-rule="nonzero"/><path fill="#d01e26" d="M 213.867188 420.894531 C 216.464844 418.042969 215.769531 414.28125 212.320312 412.542969 L 113.296875 362.671875 C 109.835938 360.929688 108.648438 362.234375 110.617188 365.558594 L 167.925781 461.347656 C 169.90625 464.660156 173.664062 465.039062 176.269531 462.183594 L 189.8125 447.285156 C 192.410156 444.441406 196.675781 439.757812 199.273438 436.902344 Z M 213.867188 420.894531 " fill-opacity="1" fill-rule="nonzero"/><g clip-path="url(#6033ae2838)"><path fill="#d01e26" d="M 136.574219 463.960938 C 139.609375 463.328125 140.929688 460.542969 139.480469 457.785156 L 98.242188 378.53125 C 96.796875 375.769531 95.414062 376.035156 95.136719 379.148438 L 87.480469 468.757812 C 87.214844 471.867188 89.488281 473.878906 92.53125 473.242188 L 108.402344 469.898438 C 111.453125 469.253906 116.4375 468.210938 119.480469 467.570312 Z M 136.574219 463.960938 " fill-opacity="1" fill-rule="nonzero"/></g><path fill="#d01e26" d="M 70.433594 460.171875 C 73.03125 460.949219 75.199219 459.367188 75.242188 456.664062 L 76.710938 378.929688 C 76.769531 376.214844 75.585938 375.847656 74.085938 378.09375 L 30.917969 443.398438 C 29.425781 445.65625 30.332031 448.140625 32.925781 448.925781 L 46.433594 452.984375 C 49.035156 453.75 53.285156 455.023438 55.878906 455.816406 Z M 70.433594 460.171875 " fill-opacity="1" fill-rule="nonzero"/><path fill="#d01e26" d="M 18.320312 407.96875 C 19.421875 409.804688 21.519531 410.035156 22.984375 408.496094 L 65.335938 364.214844 C 66.816406 362.664062 66.320312 361.828125 64.25 362.335938 L 4.375 377.140625 C 2.308594 377.65625 1.496094 379.578125 2.585938 381.414062 L 8.257812 390.980469 C 9.347656 392.8125 11.121094 395.824219 12.222656 397.664062 Z M 18.320312 407.96875 " fill-opacity="1" fill-rule="nonzero"/><path fill="#d01e26" d="M 12.125 343.292969 C 11.847656 344.910156 12.949219 346.078125 14.5625 345.917969 L 60.917969 341.175781 C 62.542969 341.015625 62.671875 340.269531 61.226562 339.550781 L 19.246094 318.578125 C 17.792969 317.855469 16.371094 318.578125 16.109375 320.179688 L 14.671875 328.496094 C 14.398438 330.097656 13.941406 332.722656 13.664062 334.332031 Z M 12.125 343.292969 " fill-opacity="1" fill-rule="nonzero"/><path fill="#d01e26" d="M 26.480469 302.578125 C 25.835938 303.734375 26.351562 304.925781 27.636719 305.234375 L 64.382812 314.066406 C 65.660156 314.363281 65.953125 313.835938 65.046875 312.894531 L 38.566406 285.566406 C 37.652344 284.628906 36.367188 284.800781 35.722656 285.933594 L 32.390625 291.949219 C 31.761719 293.09375 30.707031 294.984375 30.054688 296.128906 Z M 26.480469 302.578125 " fill-opacity="1" fill-rule="nonzero"/></g></g></g></svg>